{"accessors" : [{"bufferView" : 0, "byteOffset" : 0, "componentType" : 5123, "count" : 780, "type" : "SCALAR", "max" : [689], "min" : [0]}, {"bufferView" : 1, "byteOffset" : 0, "componentType" : 5126, "count" : 690, "type" : "VEC3", "max" : [0.6599022746086121, 0.4032391905784607, 0.6134030818939209], "min" : [-0.5891342163085938, -1.0006096363067627, -0.7171204686164856], "name" : "POSITION"}, {"bufferView" : 1, "byteOffset" : 12, "componentType" : 5126, "count" : 690, "type" : "VEC2", "max" : [0.36987459659576416, 0.7071024775505066], "min" : [0.06978989392518997, 0.15274596214294434], "name" : "TEXCOORD_0"}, {"bufferView" : 1, "byteOffset" : 20, "componentType" : 5126, "count" : 690, "type" : "VEC3", "max" : [1.0000044107437134, 1.0000044107437134, 1.0000044107437134], "min" : [-1.0000044107437134, -1.0000044107437134, -1.0000044107437134], "name" : "NORMAL"}, {"bufferView" : 0, "byteOffset" : 1560, "componentType" : 5123, "count" : 660, "type" : "SCALAR", "max" : [549], "min" : [0]}, {"bufferView" : 2, "byteOffset" : 0, "componentType" : 5126, "count" : 550, "type" : "VEC3", "max" : [0.5388336181640625, 0.03415268659591675, 0.3529299199581146], "min" : [-0.512088418006897, -0.02974907122552395, -0.34673112630844116], "name" : "POSITION"}, {"bufferView" : 2, "byteOffset" : 12, "componentType" : 5126, "count" : 550, "type" : "VEC2", "max" : [0.07861543446779251, 0.705798864364624], "min" : [0.07440225034952164, 0.6980323791503906], "name" : "TEXCOORD_0"}, {"bufferView" : 2, "byteOffset" : 20, "componentType" : 5126, "count" : 550, "type" : "VEC3", "max" : [1.0000044107437134, 0.9975878000259399, 0.997588574886322], "min" : [-1.0000044107437134, -0.06992419809103012, -0.9975889325141907], "name" : "NORMAL"}, {"bufferView" : 0, "byteOffset" : 2880, "componentType" : 5123, "count" : 60, "type" : "SCALAR", "max" : [49], "min" : [0]}, {"bufferView" : 3, "byteOffset" : 0, "componentType" : 5126, "count" : 50, "type" : "VEC3", "max" : [0.11930638551712036, 0.04196007549762726, 0.04445495083928108], "min" : [-0.11930637061595917, 0.005403690505772829, -0.12498568743467331], "name" : "POSITION"}, {"bufferView" : 3, "byteOffset" : 12, "componentType" : 5126, "count" : 50, "type" : "VEC2", "max" : [0.07856810837984085, 0.7061190605163574], "min" : [0.07208804041147232, 0.6991779804229736], "name" : "TEXCOORD_0"}, {"bufferView" : 3, "byteOffset" : 20, "componentType" : 5126, "count" : 50, "type" : "VEC3", "max" : [1.0000044107437134, 0.9918015003204346, 0.9976915717124939], "min" : [-1.0000044107437134, -0.06797313690185547, -0.9976915717124939], "name" : "NORMAL"}, {"bufferView" : 0, "byteOffset" : 3000, "componentType" : 5123, "count" : 1944, "type" : "SCALAR", "max" : [1619], "min" : [0]}, {"bufferView" : 4, "byteOffset" : 0, "componentType" : 5126, "count" : 1620, "type" : "VEC3", "max" : [0.959243655204773, 0.1073637306690216, 0.009782281704246998], "min" : [-0.5878115892410278, -0.004716245923191309, -1.9774090051651], "name" : "POSITION"}, {"bufferView" : 4, "byteOffset" : 12, "componentType" : 5126, "count" : 1620, "type" : "VEC2", "max" : [0.3629060685634613, 0.15392273664474487], "min" : [0.3629060685634613, 0.15391254425048828], "name" : "TEXCOORD_0"}, {"bufferView" : 4, "byteOffset" : 20, "componentType" : 5126, "count" : 1620, "type" : "VEC3", "max" : [0.9986710548400879, 0.891776442527771, 0.9987999796867371], "min" : [-0.9986720681190491, -0.8917759656906128, -0.9987999796867371], "name" : "NORMAL"}, {"bufferView" : 0, "byteOffset" : 6888, "componentType" : 5123, "count" : 1512, "type" : "SCALAR", "max" : [1259], "min" : [0]}, {"bufferView" : 5, "byteOffset" : 0, "componentType" : 5126, "count" : 1260, "type" : "VEC3", "max" : [0.48139455914497375, 0.10781548172235489, 1.6323003768920898], "min" : [-0.9255702495574951, -0.009383708238601685, -0.175927072763443], "name" : "POSITION"}, {"bufferView" : 5, "byteOffset" : 12, "componentType" : 5126, "count" : 1260, "type" : "VEC2", "max" : [0.363332062959671, 0.15418106317520142], "min" : [0.3630581796169281, 0.15388566255569458], "name" : "TEXCOORD_0"}, {"bufferView" : 5, "byteOffset" : 20, "componentType" : 5126, "count" : 1260, "type" : "VEC3", "max" : [0.9701021313667297, 0.9999821186065674, 0.8953902125358582], "min" : [-0.9699516892433167, -0.9999821186065674, -0.8959450125694275], "name" : "NORMAL"}, {"bufferView" : 0, "byteOffset" : 9912, "componentType" : 5123, "count" : 36, "type" : "SCALAR", "max" : [29], "min" : [0]}, {"bufferView" : 6, "byteOffset" : 0, "componentType" : 5126, "count" : 30, "type" : "VEC3", "max" : [0.6023150086402893, 0.0231260247528553, 0.4061111509799957], "min" : [-0.5755699872970581, -0.10194946825504303, -0.3993651568889618], "name" : "POSITION"}, {"bufferView" : 6, "byteOffset" : 12, "componentType" : 5126, "count" : 30, "type" : "VEC2", "max" : [0.07714913040399551, 0.6806948781013489], "min" : [0.06967569887638092, 0.6686438322067261], "name" : "TEXCOORD_0"}, {"bufferView" : 6, "byteOffset" : 20, "componentType" : 5126, "count" : 30, "type" : "VEC3", "max" : [1.0000044107437134, 0.9975505471229553, 1.0000044107437134], "min" : [-1.0000044107437134, -1.0000042915344238, -1.0000044107437134], "name" : "NORMAL"}, {"bufferView" : 0, "byteOffset" : 9984, "componentType" : 5123, "count" : 36, "type" : "SCALAR", "max" : [29], "min" : [0]}, {"bufferView" : 7, "byteOffset" : 0, "componentType" : 5126, "count" : 30, "type" : "VEC3", "max" : [0.14718680083751678, 0.029306933283805847, 0.3011114299297333], "min" : [-0.14718680083751678, -0.09576857089996338, -0.14004991948604584], "name" : "POSITION"}, {"bufferView" : 7, "byteOffset" : 12, "componentType" : 5126, "count" : 30, "type" : "VEC2", "max" : [0.07452392578125, 0.680747389793396], "min" : [0.07027368247509003, 0.666151762008667], "name" : "TEXCOORD_0"}, {"bufferView" : 7, "byteOffset" : 20, "componentType" : 5126, "count" : 30, "type" : "VEC3", "max" : [1.0000044107437134, 0.9918936491012573, 1.0000044107437134], "min" : [-1.0000044107437134, -1.0000044107437134, -1.0000044107437134], "name" : "NORMAL"}, {"bufferView" : 0, "byteOffset" : 10056, "componentType" : 5123, "count" : 192, "type" : "SCALAR", "max" : [161], "min" : [0]}, {"bufferView" : 8, "byteOffset" : 0, "componentType" : 5126, "count" : 162, "type" : "VEC3", "max" : [0.8921128511428833, 0.03028293512761593, 0.9040470123291016], "min" : [-0.7774766087532043, -0.04442794620990753, -0.8186683654785156], "name" : "POSITION"}, {"bufferView" : 8, "byteOffset" : 12, "componentType" : 5126, "count" : 162, "type" : "VEC2", "max" : [0.3699219822883606, 0.15448111295700073], "min" : [0.3685378134250641, 0.14384829998016357], "name" : "TEXCOORD_0"}, {"bufferView" : 8, "byteOffset" : 20, "componentType" : 5126, "count" : 162, "type" : "VEC3", "max" : [0.8660540580749512, 1.0000044107437134, 1.0000044107437134], "min" : [-1.0000044107437134, -1.0000044107437134, -1.0000044107437134], "name" : "NORMAL"}, {"bufferView" : 0, "byteOffset" : 10440, "componentType" : 5123, "count" : 6, "type" : "SCALAR", "max" : [4], "min" : [0]}, {"bufferView" : 9, "byteOffset" : 0, "componentType" : 5126, "count" : 5, "type" : "VEC3", "max" : [0.49581944942474365, 0.39156481623649597, -0], "min" : [-0.49581944942474365, -0.39156484603881836, -0], "name" : "POSITION"}, {"bufferView" : 9, "byteOffset" : 12, "componentType" : 5126, "count" : 5, "type" : "VEC2", "max" : [0.9639036655426025, 0.9100732803344727], "min" : [0.4645383059978485, 0.5157079696655273], "name" : "TEXCOORD_0"}, {"bufferView" : 9, "byteOffset" : 20, "componentType" : 5126, "count" : 5, "type" : "VEC3", "max" : [0, 0, 1.0000044107437134], "min" : [0, 0, 1.0000044107437134], "name" : "NORMAL"}, {"bufferView" : 0, "byteOffset" : 10452, "componentType" : 5123, "count" : 1944, "type" : "SCALAR", "max" : [1619], "min" : [0]}, {"bufferView" : 10, "byteOffset" : 0, "componentType" : 5126, "count" : 1620, "type" : "VEC3", "max" : [3.4890968799591064, 0.39051854610443115, 0.035581499338150024], "min" : [-2.1380715370178223, -0.017154596745967865, -7.192512035369873], "name" : "POSITION"}, {"bufferView" : 10, "byteOffset" : 12, "componentType" : 5126, "count" : 1620, "type" : "VEC2", "max" : [1, 1], "min" : [0, 0], "name" : "TEXCOORD_0"}, {"bufferView" : 10, "byteOffset" : 20, "componentType" : 5126, "count" : 1620, "type" : "VEC3", "max" : [0.9986709952354431, 0.8917779326438904, 0.9987999200820923], "min" : [-0.9986720681190491, -0.8917819261550903, -0.9987999796867371], "name" : "NORMAL"}, {"bufferView" : 0, "byteOffset" : 14340, "componentType" : 5123, "count" : 1512, "type" : "SCALAR", "max" : [1259], "min" : [0]}, {"bufferView" : 11, "byteOffset" : 0, "componentType" : 5126, "count" : 1260, "type" : "VEC3", "max" : [3.3666152954101562, 0.3921617269515991, 0.6399068832397461], "min" : [-1.7509962320327759, -0.03413175046443939, -5.937233924865723], "name" : "POSITION"}, {"bufferView" : 11, "byteOffset" : 12, "componentType" : 5126, "count" : 1260, "type" : "VEC2", "max" : [1, 1], "min" : [0, 0], "name" : "TEXCOORD_0"}, {"bufferView" : 11, "byteOffset" : 20, "componentType" : 5126, "count" : 1260, "type" : "VEC3", "max" : [0.9699508547782898, 0.9999821186065674, 0.895945131778717], "min" : [-0.970101535320282, -0.9999821782112122, -0.8953896760940552], "name" : "NORMAL"}], "asset" : {"generator" : "Aspose.3D 23.2", "version" : "2.0"}, "buffers" : [{"uri" : "data:application/octet-stream;base64,", "byteLength" : 295236}], "bufferViews" : [{"buffer" : 0, "byteOffset" : 0, "byteLength" : 17364, "target" : 34963}, {"buffer" : 0, "byteOffset" : 17368, "byteLength" : 24960, "byteStride" : 32, "target" : 34962}, {"buffer" : 0, "byteOffset" : 42332, "byteLength" : 21120, "byteStride" : 32, "target" : 34962}, {"buffer" : 0, "byteOffset" : 63456, "byteLength" : 1920, "byteStride" : 32, "target" : 34962}, {"buffer" : 0, "byteOffset" : 65380, "byteLength" : 62208, "byteStride" : 32, "target" : 34962}, {"buffer" : 0, "byteOffset" : 127592, "byteLength" : 48384, "byteStride" : 32, "target" : 34962}, {"buffer" : 0, "byteOffset" : 175980, "byteLength" : 1152, "byteStride" : 32, "target" : 34962}, {"buffer" : 0, "byteOffset" : 177136, "byteLength" : 1152, "byteStride" : 32, "target" : 34962}, {"buffer" : 0, "byteOffset" : 178292, "byteLength" : 6144, "byteStride" : 32, "target" : 34962}, {"buffer" : 0, "byteOffset" : 184440, "byteLength" : 192, "byteStride" : 32, "target" : 34962}, {"buffer" : 0, "byteOffset" : 184636, "byteLength" : 62208, "byteStride" : 32, "target" : 34962}, {"buffer" : 0, "byteOffset" : 246848, "byteLength" : 48384, "byteStride" : 32, "target" : 34962}], "images" : [{"uri" : "data:image/png;base64,"}], "materials" : [{"name" : "base", "pbrMetallicRoughness" : {"baseColorFactor" : [1, 1, 1, 1], "baseColorTexture" : {"index" : 0, "texCoord" : 0}, "metallicFactor" : 0, "roughnessFactor" : 0.5}, "emissiveFactor" : [0, 0, 0], "alphaMode" : "OPAQUE", "doubleSided" : true}, {"name" : "base", "pbrMetallicRoughness" : {"baseColorFactor" : [1, 1, 1, 1], "baseColorTexture" : {"index" : 0, "texCoord" : 0}, "metallicFactor" : 0, "roughnessFactor" : 0.5}, "emissiveFactor" : [0, 0, 0], "alphaMode" : "OPAQUE", "doubleSided" : true}, {"name" : "base", "pbrMetallicRoughness" : {"baseColorFactor" : [1, 1, 1, 1], "baseColorTexture" : {"index" : 0, "texCoord" : 0}, "metallicFactor" : 0, "roughnessFactor" : 0.5}, "emissiveFactor" : [0, 0, 0], "alphaMode" : "OPAQUE", "doubleSided" : true}, {"name" : "base", "pbrMetallicRoughness" : {"baseColorFactor" : [1, 1, 1, 1], "baseColorTexture" : {"index" : 0, "texCoord" : 0}, "metallicFactor" : 0, "roughnessFactor" : 0.5}, "emissiveFactor" : [0, 0, 0], "alphaMode" : "OPAQUE", "doubleSided" : true}, {"name" : "base", "pbrMetallicRoughness" : {"baseColorFactor" : [1, 1, 1, 1], "baseColorTexture" : {"index" : 0, "texCoord" : 0}, "metallicFactor" : 0, "roughnessFactor" : 0.5}, "emissiveFactor" : [0, 0, 0], "alphaMode" : "OPAQUE", "doubleSided" : true}, {"name" : "base", "pbrMetallicRoughness" : {"baseColorFactor" : [1, 1, 1, 1], "baseColorTexture" : {"index" : 0, "texCoord" : 0}, "metallicFactor" : 0, "roughnessFactor" : 0.5}, "emissiveFactor" : [0, 0, 0], "alphaMode" : "OPAQUE", "doubleSided" : true}, {"name" : "base", "pbrMetallicRoughness" : {"baseColorFactor" : [1, 1, 1, 1], "baseColorTexture" : {"index" : 0, "texCoord" : 0}, "metallicFactor" : 0, "roughnessFactor" : 0.5}, "emissiveFactor" : [0, 0, 0], "alphaMode" : "OPAQUE", "doubleSided" : true}, {"name" : "base", "pbrMetallicRoughness" : {"baseColorFactor" : [1, 1, 1, 1], "baseColorTexture" : {"index" : 0, "texCoord" : 0}, "metallicFactor" : 0, "roughnessFactor" : 0.5}, "emissiveFactor" : [0, 0, 0], "alphaMode" : "OPAQUE", "doubleSided" : true}, {"name" : "base", "pbrMetallicRoughness" : {"baseColorFactor" : [1, 1, 1, 1], "baseColorTexture" : {"index" : 0, "texCoord" : 0}, "metallicFactor" : 0, "roughnessFactor" : 0.5}, "emissiveFactor" : [0, 0, 0], "alphaMode" : "OPAQUE", "doubleSided" : true}, {"name" : "base", "pbrMetallicRoughness" : {"baseColorFactor" : [1, 1, 1, 1], "baseColorTexture" : {"index" : 0, "texCoord" : 0}, "metallicFactor" : 0, "roughnessFactor" : 0.5}, "emissiveFactor" : [0, 0, 0], "alphaMode" : "OPAQUE", "doubleSided" : true}, {"name" : "base", "pbrMetallicRoughness" : {"baseColorFactor" : [1, 1, 1, 1], "baseColorTexture" : {"index" : 0, "texCoord" : 0}, "metallicFactor" : 0, "roughnessFactor" : 0.5}, "emissiveFactor" : [0, 0, 0], "alphaMode" : "OPAQUE", "doubleSided" : true}], "meshes" : [{"primitives" : [{"attributes" : {"POSITION" : 1, "TEXCOORD_0" : 2, "NORMAL" : 3}, "indices" : 0, "material" : 0, "mode" : 4}]}, {"primitives" : [{"attributes" : {"POSITION" : 5, "TEXCOORD_0" : 6, "NORMAL" : 7}, "indices" : 4, "material" : 1, "mode" : 4}]}, {"primitives" : [{"attributes" : {"POSITION" : 9, "TEXCOORD_0" : 10, "NORMAL" : 11}, "indices" : 8, "material" : 2, "mode" : 4}]}, {"primitives" : [{"attributes" : {"POSITION" : 13, "TEXCOORD_0" : 14, "NORMAL" : 15}, "indices" : 12, "material" : 3, "mode" : 4}]}, {"primitives" : [{"attributes" : {"POSITION" : 17, "TEXCOORD_0" : 18, "NORMAL" : 19}, "indices" : 16, "material" : 4, "mode" : 4}]}, {"primitives" : [{"attributes" : {"POSITION" : 21, "TEXCOORD_0" : 22, "NORMAL" : 23}, "indices" : 20, "material" : 5, "mode" : 4}]}, {"primitives" : [{"attributes" : {"POSITION" : 25, "TEXCOORD_0" : 26, "NORMAL" : 27}, "indices" : 24, "material" : 6, "mode" : 4}]}, {"primitives" : [{"attributes" : {"POSITION" : 29, "TEXCOORD_0" : 30, "NORMAL" : 31}, "indices" : 28, "material" : 7, "mode" : 4}]}, {"primitives" : [{"attributes" : {"POSITION" : 33, "TEXCOORD_0" : 34, "NORMAL" : 35}, "indices" : 32, "material" : 8, "mode" : 4}]}, {"primitives" : [{"attributes" : {"POSITION" : 37, "TEXCOORD_0" : 38, "NORMAL" : 39}, "indices" : 36, "material" : 9, "mode" : 4}]}, {"primitives" : [{"attributes" : {"POSITION" : 41, "TEXCOORD_0" : 42, "NORMAL" : 43}, "indices" : 40, "material" : 10, "mode" : 4}]}], "nodes" : [{"matrix" : [1.0000027418136597, 0, 0, 0, 0, 1, 0, 0, 0, 0, 1, 0, -0.1346541792154312, 1.0006096363067627, -0.7807175517082214, 1], "mesh" : 0, "name" : "monitor"}, {"matrix" : [1, 0, 0, 0, 0, 1, 0, 0, 0, 0, 1, 0, -0.2413093000650406, 0.10194946825504303, 0.6623499989509583, 1], "mesh" : 1, "name" : "keyboard"}, {"matrix" : [1, 0, 0, 0, 0, 1, 0, 0, 0, 0, 1, 0, 0.819762110710144, 0.09576860070228577, 0.28985053300857544, 1], "mesh" : 2, "name" : "mouse"}, {"matrix" : [1, 0, 0, 0, 0, 1, 0, 0, 0, 0, 1, 0, -1.0954371690750122, 0, 0.3092101216316223, 1], "mesh" : 3, "name" : "cabel1"}, {"matrix" : [1, 0, 0, 0, 0, 1, 0, 0, 0, 0, 1, 0, 0.86443030834198, 0, -1.4929845333099365, 1], "mesh" : 4, "name" : "cabel2"}, {"matrix" : [1, 0, 0, 0, 0, 1, 0, 0, 0, 0, 1, 0, -0.2413093000650406, 0.10194946825504303, 0.6623499989509583, 1], "mesh" : 5, "name" : "keyboard.001"}, {"matrix" : [1, 0, 0, 0, 0, 1, 0, 0, 0, 0, 1, 0, 0.819762110710144, 0.09576860070228577, 0.28985053300857544, 1], "mesh" : 6, "name" : "mouse.001"}, {"matrix" : [1, 0, 0, 0, 0, 1, 0, 0, 0, 0, 1, 0, -0.0500204861164093, 0.08674781769514084, -0.5726951956748962, 1], "mesh" : 7, "name" : "keyboard.002"}, {"matrix" : [1.0021238327026367, 0, 0, 0, 0, 1.002121090888977, 0, 0, 0, 0, 1.002121090888977, 0, -0.09927014261484146, 0.8841755390167236, -0.25740116834640503, 1], "mesh" : 8, "name" : "monitor.001"}, {"matrix" : [0.2749260663986206, 0, 0, 0, 0, 0.2749260663986206, 0, 0, 0, 0, 0.2749260663986206, 0, -1.0954371690750122, 0, 0.3092101216316223, 1], "mesh" : 9, "name" : "BezierCurve.002"}, {"matrix" : [-0.2749260663986206, 0, 1.0706016023355632E-07, 0, 0, 0.2749260663986206, 0, 0, -1.0706016023355632E-07, 0, -0.2749260663986206, 0, 0.86443030834198, 0, -1.4929845333099365, 1], "mesh" : 10, "name" : "BezierCurve.003"}], "samplers" : [{"magFilter" : 9729, "minFilter" : 9987, "wrapS" : 10497, "wrapT" : 10497}], "scene" : 0, "scenes" : [{"nodes" : [0, 1, 2, 3, 4, 5, 6, 7, 8, 9, 10]}], "textures" : [{"sampler" : 0, "source" : 0, "name" : ""}]}