<?xml version="1.0" encoding="UTF-8"?>
<!DOCTYPE svg PUBLIC "-//W3C//DTD SVG 1.1//EN" "http://www.w3.org/Graphics/SVG/1.1/DTD/svg11.dtd">
<svg xmlns="http://www.w3.org/2000/svg" version="1.1" width="512px" height="512px" style="shape-rendering:geometricPrecision; text-rendering:geometricPrecision; image-rendering:optimizeQuality; fill-rule:evenodd; clip-rule:evenodd" xmlns:xlink="http://www.w3.org/1999/xlink">
<g><path style="opacity:1" fill="#6eb9fe" d="M 377.5,31.5 C 416.522,39.0225 439.689,62.3558 447,101.5C 447.667,193.5 447.667,285.5 447,377.5C 439.833,416.667 416.667,439.833 377.5,447C 285.5,447.667 193.5,447.667 101.5,447C 62.3337,439.667 39.0004,416.5 31.5,377.5C 31.3333,289.499 31.5,201.499 32,113.5C 38.5988,76.7918 59.0988,51.2918 93.5,37C 100.01,34.7058 106.677,33.0392 113.5,32C 201.499,31.5 289.499,31.3333 377.5,31.5 Z"/></g>
<g><path style="opacity:0.995" fill="#597ddc" d="M 377.5,31.5 C 423.63,30.6374 455.796,51.3041 474,93.5C 475.644,98.077 476.978,102.744 478,107.5C 479.652,204.137 479.986,300.803 479,397.5C 472.401,434.208 451.901,459.708 417.5,474C 410.99,476.294 404.323,477.961 397.5,479C 302.833,479.667 208.167,479.667 113.5,479C 74.0841,471.918 47.9174,449.418 35,411.5C 31.9762,400.37 30.8095,389.037 31.5,377.5C 39.0004,416.5 62.3337,439.667 101.5,447C 193.5,447.667 285.5,447.667 377.5,447C 416.667,439.833 439.833,416.667 447,377.5C 447.667,285.5 447.667,193.5 447,101.5C 439.689,62.3558 416.522,39.0225 377.5,31.5 Z"/></g>
<g><path style="opacity:1" fill="#fefeff" d="M 191.5,107.5 C 228.168,107.333 264.835,107.5 301.5,108C 334.992,111.162 358.825,127.996 373,158.5C 386.626,196.825 378.459,229.658 348.5,257C 335.474,266.9 320.807,272.9 304.5,275C 270.835,275.5 237.168,275.667 203.5,275.5C 203.667,313.168 203.5,350.835 203,388.5C 197.946,401.193 188.779,405.693 175.5,402C 169.163,399.164 165.33,394.331 164,387.5C 163.333,303.5 163.333,219.5 164,135.5C 168.684,121.65 177.851,112.316 191.5,107.5 Z"/></g>
<g><path style="opacity:1" fill="#6ebaff" d="M 203.5,147.5 C 237.882,147.027 272.216,147.527 306.5,149C 322.569,153.402 333.069,163.569 338,179.5C 342.574,206.532 332.074,224.698 306.5,234C 272.216,235.473 237.882,235.973 203.5,235.5C 203.5,206.167 203.5,176.833 203.5,147.5 Z"/></g>
</svg>
