{
  "asset": {
    "generator": "Khronos glTF Blender I/O v3.2.40",
    "version": "2.0"
  },
  "scene": 0,
  "scenes": [
    {
      "name": "Scene",
      "nodes": [6, 7]
    }
  ],
  "nodes": [
    {
      "mesh": 0,
      "name": "bag",
      "translation": [0.0000152587890625, 0.0000028123085940023884, 0]
    },
    {
      "children": [0],
      "name": "bag_group",
      "rotation": [-0.7071068286895752, 0, 0, 0.7071067094802856],
      "translation": [
        -133.11257934570312, 4.691459655761719, -154.30752563476562
      ]
    },
    {
      "mesh": 1,
      "name": "metal",
      "rotation": [
        0.23112240433692932, 0.17001642286777496, -0.7092575430870056,
        0.6439182162284851
      ],
      "scale": [1.943600058555603, 1.9435997009277344, 1.943599820137024],
      "translation": [-1.7867333889007568, 0.4081825613975525, 17.8613224029541]
    },
    {
      "children": [2],
      "name": "metal_group",
      "rotation": [
        -0.7059934139251709, 0.057710304856300354, 0.02287253364920616,
        0.7054925560951233
      ],
      "scale": [0.8205996155738831, 0.8205997347831726, 0.8205997943878174],
      "translation": [20.24993133544922, 42.67677307128906, 13.590652465820312]
    },
    {
      "mesh": 2,
      "name": "strap",
      "translation": [
        0.000006169823791424278, 0.000006612116521864664,
        0.000007863720384193584
      ]
    },
    {
      "children": [4],
      "name": "strap_group",
      "rotation": [-0.7071066498756409, 0, 0, 0.70710688829422],
      "translation": [50.73945999145508, 6.329536437988281, -302.8206787109375]
    },
    {
      "children": [1, 3, 5],
      "name": "bag_main",
      "scale": [0.22709226608276367, 0.22709226608276367, 0.22709226608276367],
      "translation": [
        -3.7095727920532227, 26.419124603271484, 21.142711639404297
      ]
    },
    {
      "mesh": 3,
      "name": "shadow_plane",
      "scale": [54.264949798583984, 54.264949798583984, 54.264949798583984]
    }
  ],
  "materials": [
    {
      "doubleSided": true,
      "name": "Bag_Matte",
      "normalTexture": {
        "index": 0,
        "scale": 0.2000000774860382
      },
      "pbrMetallicRoughness": {
        "baseColorFactor": [
          0.791297435760498, 0.6514051556587219, 0.5520114302635193, 1
        ],
        "metallicFactor": 0.2772727310657501,
        "roughnessFactor": 0.836363673210144
      }
    },
    {
      "doubleSided": true,
      "name": "base_Metal",
      "pbrMetallicRoughness": {
        "baseColorFactor": [
          0.6795421242713928, 0.4396567642688751, 0.16826947033405304, 1
        ],
        "metallicFactor": 0.7681818604469299,
        "roughnessFactor": 0.20909090340137482
      }
    },
    {
      "doubleSided": true,
      "name": "Leather",
      "normalTexture": {
        "index": 1,
        "scale": 0.7999999523162842
      },
      "pbrMetallicRoughness": {
        "baseColorFactor": [
          0.1119324192404747, 0.02415759116411209, 0.008568134158849716, 1
        ],
        "metallicFactor": 0.23181818425655365,
        "roughnessFactor": 0.586363673210144
      }
    },
    {
      "alphaMode": "BLEND",
      "doubleSided": true,
      "name": "Material",
      "pbrMetallicRoughness": {
        "baseColorFactor": [
          0.800000011920929, 0.800000011920929, 0.800000011920929, 1
        ],
        "baseColorTexture": {
          "index": 2
        },
        "metallicFactor": 0,
        "roughnessFactor": 0.4000000059604645
      }
    }
  ],
  "meshes": [
    {
      "name": "bag_shdr",
      "primitives": [
        {
          "attributes": {
            "POSITION": 0,
            "NORMAL": 1,
            "TEXCOORD_0": 2
          },
          "indices": 3,
          "material": 0
        }
      ]
    },
    {
      "name": "metal_shdr",
      "primitives": [
        {
          "attributes": {
            "POSITION": 4,
            "NORMAL": 5,
            "TEXCOORD_0": 6
          },
          "indices": 7,
          "material": 1
        }
      ]
    },
    {
      "name": "strap_shdr",
      "primitives": [
        {
          "attributes": {
            "POSITION": 8,
            "NORMAL": 9,
            "TEXCOORD_0": 10
          },
          "indices": 11,
          "material": 2
        }
      ]
    },
    {
      "name": "Plane.001",
      "primitives": [
        {
          "attributes": {
            "POSITION": 12,
            "NORMAL": 13,
            "TEXCOORD_0": 14
          },
          "indices": 15,
          "material": 3
        }
      ]
    }
  ],
  "textures": [
    {
      "sampler": 0,
      "source": 0
    },
    {
      "sampler": 0,
      "source": 1
    },
    {
      "sampler": 0,
      "source": 2
    }
  ],
  "images": [
    {
      "name": "bag_normal",
      "uri": "bag_img0.png"
    },
    {
      "name": "strap_normal",
      "uri": "bag_img1.jpg"
    },
    {
      "name": "shadow_map2",
      "uri": "bag_img2.png"
    }
  ],
  "accessors": [
    {
      "bufferView": 0,
      "componentType": 5126,
      "count": 16369,
      "max": [306.9133605957031, 40.70477294921875, 151.08883666992188],
      "min": [-8.511249542236328, -181.8251495361328, -118.8354263305664],
      "type": "VEC3"
    },
    {
      "bufferView": 1,
      "componentType": 5126,
      "count": 16369,
      "type": "VEC3"
    },
    {
      "bufferView": 2,
      "componentType": 5126,
      "count": 16369,
      "type": "VEC2"
    },
    {
      "bufferView": 3,
      "componentType": 5123,
      "count": 77040,
      "type": "SCALAR"
    },
    {
      "bufferView": 4,
      "componentType": 5126,
      "count": 94282,
      "max": [35.72012710571289, 96.93002319335938, -1.9353057146072388],
      "min": [-116.95762634277344, -101.95407104492188, -104.08853912353516],
      "type": "VEC3"
    },
    {
      "bufferView": 5,
      "componentType": 5126,
      "count": 94282,
      "type": "VEC3"
    },
    {
      "bufferView": 6,
      "componentType": 5126,
      "count": 94282,
      "type": "VEC2"
    },
    {
      "bufferView": 7,
      "componentType": 5125,
      "count": 528444,
      "type": "SCALAR"
    },
    {
      "bufferView": 8,
      "componentType": 5126,
      "count": 6230,
      "max": [126.31014251708984, -3.118488073348999, 150.96087646484375],
      "min": [-195.61212158203125, -341.7582702636719, -122.45333862304688],
      "type": "VEC3"
    },
    {
      "bufferView": 9,
      "componentType": 5126,
      "count": 6230,
      "type": "VEC3"
    },
    {
      "bufferView": 10,
      "componentType": 5126,
      "count": 6230,
      "type": "VEC2"
    },
    {
      "bufferView": 11,
      "componentType": 5123,
      "count": 11568,
      "type": "SCALAR"
    },
    {
      "bufferView": 12,
      "componentType": 5126,
      "count": 4,
      "max": [1, 0, 1],
      "min": [-1, 0, -1],
      "type": "VEC3"
    },
    {
      "bufferView": 13,
      "componentType": 5126,
      "count": 4,
      "type": "VEC3"
    },
    {
      "bufferView": 14,
      "componentType": 5126,
      "count": 4,
      "type": "VEC2"
    },
    {
      "bufferView": 15,
      "componentType": 5123,
      "count": 6,
      "type": "SCALAR"
    }
  ],
  "bufferViews": [
    {
      "buffer": 0,
      "byteLength": 196428,
      "byteOffset": 0
    },
    {
      "buffer": 0,
      "byteLength": 196428,
      "byteOffset": 196428
    },
    {
      "buffer": 0,
      "byteLength": 130952,
      "byteOffset": 392856
    },
    {
      "buffer": 0,
      "byteLength": 154080,
      "byteOffset": 523808
    },
    {
      "buffer": 0,
      "byteLength": 1131384,
      "byteOffset": 677888
    },
    {
      "buffer": 0,
      "byteLength": 1131384,
      "byteOffset": 1809272
    },
    {
      "buffer": 0,
      "byteLength": 754256,
      "byteOffset": 2940656
    },
    {
      "buffer": 0,
      "byteLength": 2113776,
      "byteOffset": 3694912
    },
    {
      "buffer": 0,
      "byteLength": 74760,
      "byteOffset": 5808688
    },
    {
      "buffer": 0,
      "byteLength": 74760,
      "byteOffset": 5883448
    },
    {
      "buffer": 0,
      "byteLength": 49840,
      "byteOffset": 5958208
    },
    {
      "buffer": 0,
      "byteLength": 23136,
      "byteOffset": 6008048
    },
    {
      "buffer": 0,
      "byteLength": 48,
      "byteOffset": 6031184
    },
    {
      "buffer": 0,
      "byteLength": 48,
      "byteOffset": 6031232
    },
    {
      "buffer": 0,
      "byteLength": 32,
      "byteOffset": 6031280
    },
    {
      "buffer": 0,
      "byteLength": 12,
      "byteOffset": 6031312
    }
  ],
  "samplers": [
    {
      "magFilter": 9729,
      "minFilter": 9987
    }
  ],
  "buffers": [
    {
      "uri": "bag_data.bin",
      "byteLength": 6031324
    }
  ]
}
